<svg xmlns="http://www.w3.org/2000/svg"><symbol id="icon_alert" viewBox="0 0 24 24"><circle cx="12" cy="12" r="11" stroke-linecap="square" stroke-miterlimit="10" stroke-width="2"/><path stroke-linecap="square" stroke-miterlimit="10" stroke-width="2" d="M12 7v6"/><circle cx="12" cy="17" r="1"/></symbol><symbol id="icon_angle" viewBox="0 0 10 5.5"><path stroke-linecap="round" stroke-linejoin="round" d="M.5.5L5 5 9.5.5"/></symbol><symbol id="icon_arrow-right" viewBox="0 0 21.41 16.83"><path stroke-miterlimit="10" stroke-width="2" d="M0 8.41h20"/><path stroke-linecap="square" stroke-miterlimit="10" stroke-width="2" d="M13 1.41l7 7-7 7"/></symbol><symbol id="icon_arrow" viewBox="0 0 11 16"><path stroke-linecap="round" stroke-linejoin="round" d="M5.5 15.5V.5m-5 5l5-5 5 5"/></symbol><symbol id="icon_bell" viewBox="0 0 23.02 25.97"><path d="M23 18.45a4.36 4.36 0 0 0-1.32-2.82 4.73 4.73 0 0 1-1.45-3.41L20.1 12V9c0-4.75-3.88-9-8.53-9C6.91 0 3.12 4.21 3.1 9v3a5.33 5.33 0 0 1-1.76 3.57A4.28 4.28 0 0 0 0 18.37c0 2.47 3.37 3.88 7.49 4.4a4.11 4.11 0 0 0 4 3.2 4.1 4.1 0 0 0 2.94-1.23 4.35 4.35 0 0 0 1.07-1.94c4.14-.47 7.5-1.87 7.5-4.35zM13 23.3a2.14 2.14 0 0 1-1.55.64 2.15 2.15 0 0 1-1.81-1h3.63a1.64 1.64 0 0 1-.22.36zm2.32-2.48a1 1 0 0 0-.68-.3 1 1 0 0 0-.77.42h-2.8c-.72 0-1.37 0-2-.07a1 1 0 0 0-.77-.42 1 1 0 0 0-.69.29C3.49 20.27 2 18.91 2 18.38s.31-.84.85-1.48A7.3 7.3 0 0 0 5.1 12V9c0-3.64 2.92-7 6.44-7a6.88 6.88 0 0 1 6.56 7v3a7.44 7.44 0 0 0 2.11 5c.54.65.84 1 .84 1.49s-1.5 1.85-5.68 2.33z" fill-rule="evenodd"/></symbol><symbol id="icon_big-angle" viewBox="0 0 12.83 22.83"><path stroke-linecap="square" stroke-miterlimit="10" stroke-width="2" d="M11.41 1.41l-10 10 10 10"/></symbol><symbol id="icon_bitcoin" viewBox="0 0 123 123"><path id="Shape_82_copy" class="cls-1" d="M485.668 785.544l-.152 13.887c3.929.042 16.253 1.093 16.341-6.764.09-8.196-12.257-7.081-16.189-7.123zm-.226 20.895l-.168 15.312c4.716.048 19.493 1.19 19.585-7.447.095-9.004-14.701-7.812-19.417-7.865zm5.72-63.434A61.5 61.5 0 1 0 552 805.173a61.506 61.506 0 0 0-60.838-62.168zm23.7 46.694c.524 6.034-2.037 9.624-6.092 11.638 6.622 1.667 10.737 5.658 9.82 14.491-1.133 10.967-9.352 13.824-21.053 14.368l-.128 11.536-6.956-.075.127-11.382a252.07 252.07 0 0 1-5.555-.114L484.9 841.6l-6.948-.077.122-11.558c-1.625-.028-3.282-.075-4.967-.1l-9.054-.1 1.472-8.293s5.145.136 5.056.056a2.457 2.457 0 0 0 2.639-2.275l.2-18.236.733.007a5.631 5.631 0 0 0-.735-.056l.141-13.017c-.249-1.415-1.15-3.06-3.968-3.092.087-.093-5.051-.051-5.051-.051l.079-7.429 9.594.108v.036c1.443.014 2.922 0 4.428-.012l.127-11.423 6.952.076-.122 11.2a278.35 278.35 0 0 1 5.553-.013l.121-11.125 6.958.074-.124 11.427c8.969.887 16.051 3.726 16.755 11.973z" transform="translate(-429 -743)"/></symbol><symbol id="icon_calendar" viewBox="0 0 24 24"><path stroke-linecap="square" stroke-miterlimit="10" stroke-width="2" d="M23 9v14H1V9m0-6h22v6H1zm11-2v4M6 1v4m12-4v4"/></symbol><symbol id="icon_check" viewBox="0 0 22.828426 15.828427"><path stroke-linecap="square" stroke-miterlimit="10" stroke-width="2" d="M1.414 7.414l7 7 13-13" class="nc-icon-wrapper"/></symbol><symbol id="icon_dashboard" viewBox="0 0 27.01 26.01"><path d="M26 0H13a1 1 0 0 0-1 1v10a1 1 0 0 0 1 1h13a1 1 0 0 0 1-1V1a1 1 0 0 0-1-1zm-1 10H14V2h11zM1 12h8a1 1 0 0 0 1-1V1a1 1 0 0 0-1-1H1a1 1 0 0 0-1 1v10a1 1 0 0 0 1 1zM2 2h6v8H2zm12 12H1a1 1 0 0 0-1 1v10a1 1 0 0 0 1 1h13a1 1 0 0 0 1-1V15a1 1 0 0 0-1-1zm-1 10H2v-8h11zm13-10h-8a1 1 0 0 0-1 1v10a1 1 0 0 0 1 1h7.92A1 1 0 0 0 27 25v-9.8a1.12 1.12 0 0 0-1-1.2zm-1 10h-6v-8h6z" fill-rule="evenodd"/></symbol><symbol id="icon_doge" viewBox="0 0 123 123"><path class="cls-1" d="M1121.98 783.528h-8.79v17.324h13.82v7.254h-13.82v17.322h9.22c2.36 0 19.44.268 19.41-20.154s-16.56-21.746-19.84-21.746zM1120.5 743a61.5 61.5 0 1 0 61.5 61.5 61.5 61.5 0 0 0-61.5-61.5zm2.42 94.716h-22.28v-29.61h-7.85v-7.253h7.85v-29.612h19.12c4.52 0 34.47-.939 34.47 33.793 0 35.307-31.31 32.682-31.31 32.682z" transform="translate(-1059 -743)"/></symbol><symbol id="icon_envelope" viewBox="0 0 24 24"><path d="M12.5 17.9a.9.9 0 0 1-.5.1.9.9 0 0 1-.5-.1L0 11.7V23a.94.94 0 0 0 1 1h22a.94.94 0 0 0 1-1V11.7z"/><path d="M6 12.6V2h12v10.6l5.1-2.8L20 7.5V1a.94.94 0 0 0-1-1H5a.94.94 0 0 0-1 1v6.6L.9 9.9z"/><path d="M8 5h8v2H8zm0 4h8v2H8z"/></symbol><symbol id="icon_ethereum-c" viewBox="0 0 188 325"><path class="cls-1" d="M187.53 148.613L94 102.412l-93.53 46.2L94 0l.48.763 93.05 147.85M94 101.145l.251.124 90.175 44.544L94 2.132 3.574 145.813 94 101.145m-.268 20.984L8.173 163l85.559 57.083L178.881 163l-85.149-40.871M94 325L0 175.64l94 67.328 94-67.328zM4.044 179.934L94 322.868l89.956-142.934L94 244.365z" fill-opacity=".8"/><path class="cls-2" d="M179.3 162.879l-85.1 21.189-85.5-21.189 85.5 57.2 85.1-57.2m0 0"/></symbol><symbol id="icon_ethereum" viewBox="0 0 87 139"><path class="cls-1" d="M43.5 52.588V0L11.924 52.588H43.5zm-31.576 0L0 72.446l43.5-19.858H11.924z" fill-opacity=".4"/><path class="cls-2" d="M75.076 52.588H43.5L87 72.446zm0 0L43.5 0v52.588h31.576z" fill-opacity=".7"/><path class="cls-3" d="M13.953 80.63l29.556 17.527V80.63H13.953zm29.556 0V52.493L0 72.355l13.953 8.275h29.556zM87 72.355L43.509 52.493V80.63h29.544zM43.509 80.63v17.527L73.053 80.63H43.509z"/><path class="cls-1" d="M29.55 95.045H12.392L43.5 139v-35.689zm0 0L0 77.535l12.392 17.51H29.55z" fill-opacity=".4"/><path class="cls-2" d="M57.461 95.03L43.5 103.3V139l31.132-43.97H57.461zM87 77.535L57.461 95.03h17.171L87 77.563v-.028z" fill-opacity=".7"/></symbol><symbol id="icon_exchange" viewBox="0 0 21.414213 19.414213"><g class="nc-icon-wrapper" stroke-miterlimit="10"><path data-cap="butt" data-color="color-2" d="M7 17h15" transform="translate(-1.293 -2.293)"/><path stroke-linecap="square" data-color="color-2" d="M18 21l4-4-4-4" transform="translate(-1.293 -2.293)"/><path data-cap="butt" d="M18 7H2" transform="translate(-1.293 -2.293)"/><path stroke-linecap="square" d="M6 11L2 7l4-4" transform="translate(-1.293 -2.293)"/></g></symbol><symbol id="icon_eye" viewBox="0 0 22.3 16"><path d="M1.15 8s4-7 10-7 10 7 10 7-4 7-10 7-10-7-10-7z" stroke-linecap="square" stroke-miterlimit="10" stroke-width="2"/><circle cx="11.15" cy="8" r="3" stroke-linecap="square" stroke-miterlimit="10" stroke-width="2"/></symbol><symbol id="icon_fb" viewBox="0 0 11.03 21.969"><path class="cls-1" d="M1204 633.808v-10.02h-3.26v-3.9h3.26V617c0-3.342 1.97-5.162 4.86-5.162a25.746 25.746 0 0 1 2.91.154v3.493h-2c-1.57 0-1.87.77-1.87 1.9v2.493h3.74l-.49 3.9h-3.25v10.02h-3.9z" transform="translate(-1200.75 -611.844)"/></symbol><symbol id="icon_gg" viewBox="0 0 28 19"><path class="cls-1" d="M1361.99 622.169h-2.62v-2.62h-2.63v2.62h-2.62v2.621h2.62v2.62h2.63v-2.62h2.62v-2.621zm-18.37 0v3.276h5.25a5.1 5.1 0 0 1-5.38 4.062 5.985 5.985 0 0 1 0-11.968 5.374 5.374 0 0 1 3.76 1.442l2.58-2.49a9.183 9.183 0 0 0-6.34-2.489 9.5 9.5 0 0 0 0 19c6.52 0 9.89-5.416 8.97-10.832h-8.84z" transform="translate(-1334 -614)"/></symbol><symbol id="icon_litecoin" viewBox="0 0 123 123"><path class="cls-1" d="M1115.5 350a61.5 61.5 0 1 0 61.5 61.5 61.5 61.5 0 0 0-61.5-61.5zm24.76 90.018h-50.62l5.17-19.425-7.32 2.674 2.42-9.114 7.32-2.675 8.78-32.96h19.02l-6.71 25.256 9.31-3.4.08.22-2.35 8.839-9.46 3.455-3.99 15.042h31.6z" transform="translate(-1054 -350)"/></symbol><symbol id="icon_monero" viewBox="0 0 123 123"><path class="cls-1" d="M805.489 743a61.535 61.535 0 0 0-58.362 80.92h18.39v-51.743l39.972 39.973 39.972-39.973v51.741h18.392A61.538 61.538 0 0 0 805.489 743m-26.635 60.9v32.557h-25.913a61.507 61.507 0 0 0 105.093 0h-25.911v-32.563l-26.635 26.636z" transform="translate(-744 -743)"/></symbol><symbol id="icon_money" viewBox="0 0 24.99 27"><path d="M16.94 11a8 8 0 1 0 8 8 8 8 0 0 0-8-8zm0 14.25A6.24 6.24 0 1 1 23.21 19 6.25 6.25 0 0 1 17 25.22zm-9.58-7.57a.88.88 0 0 0 .89-.87.83.83 0 0 0-.25-.63.88.88 0 0 0-.62-.27C3.53 15.82 2.1 15.21 2 15v-2a15.47 15.47 0 0 0 5.91.82h1A.89.89 0 1 0 8.87 12h-1c-4 0-5.8-.77-5.91-1.05V9a15.19 15.19 0 0 0 5.95 1A16.3 16.3 0 0 0 14 9v1a1.09 1.09 0 0 0 1 1 1.09 1.09 0 0 0 1-1V3c0-2.11-4.16-3-8.09-3S0 .94 0 3v16c0 2 3.65 2.5 7.11 2.62a.89.89 0 0 0 .89-.87.87.87 0 0 0-.25-.64.89.89 0 0 0-.62-.27C3.49 19.72 2.1 19.2 2 19v-2a15 15 0 0 0 5.36.68zM14 7c-.11.31-2.14 1.17-6.09 1.17S2.11 7.28 2 7V5a15 15 0 0 0 5.91 1.07A16 16 0 0 0 14 5zM1.78 3.08c.16-.26 1.57-1 4.67-1.24v-.21l.05.21h1.37c.5 0 1 0 1.43.05C12.6 2 14 2.86 14.05 3c-.12.32-2.2 1.3-6.14 1.3H5.83c-.41 0-.78-.09-1.15-.15a6.24 6.24 0 0 1-2.9-1.07z" fill-rule="evenodd"/></symbol><symbol id="icon_pen" viewBox="0 0 22.69 22.69"><path stroke-miterlimit="10" stroke-width="2" d="M18.27 8.41l-4-4"/><path stroke-linecap="square" stroke-miterlimit="10" stroke-width="2" d="M6.28 20.41l-5.01 1 1-5 15-15 4 4-14.99 15z"/></symbol><symbol id="icon_refresh" viewBox="0 0 612.035 612.035"><path d="M323.128 56.236l5.646-9.57 40.17-40.169C271.247-13.921 165.482 13.786 89.65 89.646-16.421 195.717-28.355 360.261 53.875 479.49L10.98 522.386l137.7 19.667-19.667-137.7-34.968 34.967c-60.978-96.724-49.322-226.078 34.94-310.34 53.244-53.243 124.486-77.501 194.143-72.744zm258.264 13.743l-137.7-19.667 19.668 137.7 38.25-38.25c78.726 98.31 72.521 242.186-18.583 333.317-61.116 61.117-145.989 84.039-224.882 68.739l-45.65 45.649c105.654 33.799 226.05 8.791 309.895-75.054 112.858-112.858 119.146-291.979 18.805-412.209l40.197-40.225z"/></symbol><symbol id="icon_ripple" viewBox="0 0 117 127"><path class="cls-1" d="M1473.74 423.5c-4.48-2.592-9.54-3.344-14.54-3.519-4.2-.146-10.46-2.839-10.46-10.484a10.619 10.619 0 0 1 10.46-10.484c5.01-.175 10.06-.927 14.54-3.519a26.519 26.519 0 1 0-39.75-22.971c0 5.14 1.83 9.869 4.16 14.255 1.96 3.69 2.95 10.537-3.77 14.421a10.64 10.64 0 0 1-14.36-3.933c-2.63-4.217-5.81-8.168-10.26-10.74a26.518 26.518 0 1 0 0 45.942c4.45-2.57 7.63-6.519 10.26-10.734 2.16-3.461 7.55-7.872 14.36-3.938a10.664 10.664 0 0 1 3.76 14.423c-2.33 4.386-4.15 9.114-4.15 14.253a26.5 26.5 0 1 0 39.75-22.972z" transform="translate(-1370 -346)"/></symbol><symbol id="icon_star" viewBox="0 0 39 37"><path fill-rule="evenodd" d="M19.5 2.501l5.603 10.056 11.395 2.166-7.933 8.382 1.44 11.394L19.5 29.623 8.995 34.499l1.439-11.394-7.932-8.382 11.395-2.166L19.5 2.501"/></symbol><symbol id="icon_time" viewBox="0 0 26 26"><path d="M13 0a13 13 0 1 0 13 13A13 13 0 0 0 13 0zm0 24a11 11 0 1 1 11-11 11 11 0 0 1-11 11zm7.29-12H14V5.32a1 1 0 1 0-2 0V13a1 1 0 0 0 1 1h7.29a1 1 0 1 0 0-2z" fill-rule="evenodd"/></symbol><symbol id="icon_tw" viewBox="0 0 21 17"><path class="cls-1" d="M1287.99 616.968a9.6 9.6 0 0 1-2.5.7 4.181 4.181 0 0 0 1.88-2.367 9.487 9.487 0 0 1-2.75 1.052 4.373 4.373 0 0 0-3.15-1.358 4.3 4.3 0 0 0-4.29 4.3 3.723 3.723 0 0 0 .13.964 12.271 12.271 0 0 1-8.88-4.514 4.489 4.489 0 0 0-.57 2.147 4.3 4.3 0 0 0 1.93 3.594 5.049 5.049 0 0 1-1.97-.526v.04a4.331 4.331 0 0 0 3.46 4.251 4.839 4.839 0 0 1-1.14.131 5.436 5.436 0 0 1-.83-.087 4.28 4.28 0 0 0 4.02 2.98 8.735 8.735 0 0 1-5.33 1.84 7.629 7.629 0 0 1-1.01-.043 12.252 12.252 0 0 0 18.85-10.343v-.57a7.929 7.929 0 0 0 2.15-2.191z" transform="translate(-1267 -615)"/></symbol><symbol id="icon_upload" viewBox="0 0 30 30.41"><path stroke-miterlimit="10" stroke-width="2" d="M15 23.41v-22"/><path stroke-linecap="square" stroke-miterlimit="10" stroke-width="2" d="M23 9.41l-8-8-8 8m-6 15v5h28v-5"/></symbol></svg>