<svg xmlns="http://www.w3.org/2000/svg" viewBox="0 0 23.02 25.97"><title>bell</title><path d="M23,18.45a4.36,4.36,0,0,0-1.32-2.82,4.73,4.73,0,0,1-1.45-3.41L20.1,12V9c0-4.75-3.88-9-8.53-9h0C6.91,0,3.12,4.21,3.1,9v3a5.33,5.33,0,0,1-1.76,3.57A4.28,4.28,0,0,0,0,18.37c0,2.47,3.37,3.88,7.49,4.4a4.11,4.11,0,0,0,4,3.2h0a4.1,4.1,0,0,0,2.94-1.23A4.35,4.35,0,0,0,15.5,22.8C19.64,22.33,23,20.93,23,18.45Zm-10,4.85a2.14,2.14,0,0,1-1.55.64h0a2.15,2.15,0,0,1-1.81-1c.47,0,1,0,1.42,0h1l1.21,0A1.64,1.64,0,0,1,13.05,23.3Zm2.32-2.48a1,1,0,0,0-.68-.3h0a1,1,0,0,0-.77.42c-.56,0-1.15,0-1.8,0h-1c-.72,0-1.37,0-2-.07a1,1,0,0,0-.77-.42,1,1,0,0,0-.69.29C3.49,20.27,2,18.91,2,18.38s.31-.84.85-1.48A7.3,7.3,0,0,0,5.1,12V9c0-3.64,2.92-7,6.44-7h0A6.88,6.88,0,0,1,18.1,9v3a7.44,7.44,0,0,0,2.11,5c.54.65.84,1,.84,1.49S19.55,20.34,15.37,20.82Z" fill="#fff" fill-rule="evenodd"/></svg>