<svg xmlns="http://www.w3.org/2000/svg" viewBox="0 0 27.01 26.01"><title>dashboard</title><path d="M26,0H13A1,1,0,0,0,12,1L12,11a1,1,0,0,0,1,1H26a1,1,0,0,0,1-1V1A1,1,0,0,0,26,0ZM25,10H14V2H25ZM1,12H9a1,1,0,0,0,1-1V1A1,1,0,0,0,9,0H1A1,1,0,0,0,0,1V11A1,1,0,0,0,1,12ZM2,2H8v8H2ZM14,14H1a1,1,0,0,0-1,1V25a1,1,0,0,0,1,1H14a1,1,0,0,0,1-1V15A1,1,0,0,0,14,14ZM13,24H2V16H13ZM26,14H18a1,1,0,0,0-1,1V25a1,1,0,0,0,1,1h7.92A1,1,0,0,0,27,25v-9.8A1.12,1.12,0,0,0,26,14ZM25,24H19V16h6Z" fill="#1a97fc" fill-rule="evenodd"/></svg>