<svg xmlns="http://www.w3.org/2000/svg" width="123" height="123" viewBox="0 0 123 123">
<defs>
    <style>
      .cls-1 {
        fill: #2f84fc;
        fill-rule: evenodd;
      }
    </style>
  </defs>
  <path class="cls-1" d="M1121.98,783.528h-8.79v17.324h13.82v7.254h-13.82v17.322h9.22c2.36,0,19.44.268,19.41-20.154S1125.26,783.528,1121.98,783.528ZM1120.5,743a61.5,61.5,0,1,0,61.5,61.5A61.5,61.5,0,0,0,1120.5,743Zm2.42,94.716h-22.28v-29.61h-7.85v-7.253h7.85V771.241h19.12c4.52,0,34.47-.939,34.47,33.793,0,35.307-31.31,32.682-31.31,32.682h0Z" transform="translate(-1059 -743)"/>
</svg>
