<svg id="Группа_1" data-name="Группа 1" xmlns="http://www.w3.org/2000/svg" width="188" height="325" viewBox="0 0 188 325">
  <defs>
    <style>
      .cls-1, .cls-2 {
        fill: #2f84fc;
        fill-rule: evenodd;
      }
    </style>
  </defs>
  <path class="cls-1" d="M187.53,148.613L94,102.412l-93.53,46.2L94,0l0.48,0.763,93.05,147.85M94,101.145l0.251,0.124,90.175,44.544L94,2.132,3.574,145.813,94,101.145m-0.268,20.984L8.173,163l85.559,57.083L178.881,163,93.732,122.129M94,325L0,175.64l94,67.328,94-67.328ZM4.044,179.934L94,322.868l89.956-142.934L94,244.365Z" fill-opacity="0.8"/>
  <path class="cls-2" d="M179.3,162.879L94.2,184.068,8.7,162.879l85.5,57.2,85.1-57.2m0,0h0"/>
</svg>
