<svg xmlns="http://www.w3.org/2000/svg" viewBox="0 0 24.99 27"><title>money</title><path d="M16.94,11a8,8,0,1,0,8,8A8,8,0,0,0,16.94,11Zm0,14.25A6.24,6.24,0,1,1,23.21,19,6.25,6.25,0,0,1,17,25.22ZM7.36,17.68a.88.88,0,0,0,.89-.87A.83.83,0,0,0,8,16.18a.88.88,0,0,0-.62-.27C3.53,15.82,2.1,15.21,2,15V13a15.47,15.47,0,0,0,5.91.82c.34,0,.7,0,1,0A.89.89,0,1,0,8.87,12h0l-1,0c-4,0-5.8-.77-5.91-1.05V9A15.19,15.19,0,0,0,7.91,10,16.3,16.3,0,0,0,14,9v1a1.09,1.09,0,0,0,1,1,1.09,1.09,0,0,0,1-1V3c0-2.11-4.16-3-8.09-3S0,.94,0,3V19c0,2,3.65,2.5,7.11,2.62h0A.89.89,0,0,0,8,20.75a.87.87,0,0,0-.25-.64.89.89,0,0,0-.62-.27C3.49,19.72,2.1,19.2,2,19V17A15,15,0,0,0,7.36,17.68ZM14,7c-.11.31-2.14,1.17-6.09,1.17S2.11,7.28,2,7V5A15,15,0,0,0,7.91,6.07,16,16,0,0,0,14,5ZM1.78,3.08c.16-.26,1.57-1,4.67-1.24l0-.21.05.21.37,0c.34,0,.68,0,1,0h0c.5,0,1,0,1.43.05C12.6,2,14,2.86,14.05,3c-.12.32-2.2,1.3-6.14,1.3h0c-.41,0-.79,0-1.17,0H6.48l-.65,0c-.41,0-.78-.09-1.15-.15A6.24,6.24,0,0,1,1.78,3.08Z" fill="#fff" fill-rule="evenodd"/></svg>