<svg xmlns="http://www.w3.org/2000/svg" width="117" height="127" viewBox="0 0 117 127">
  <defs>
    <style>
      .cls-1 {
        fill: #2f84fc;
        fill-rule: evenodd;
      }
    </style>
  </defs>
  <path class="cls-1" d="M1473.74,423.5c-4.48-2.592-9.54-3.344-14.54-3.519-4.2-.146-10.46-2.839-10.46-10.484a10.619,10.619,0,0,1,10.46-10.484c5.01-.175,10.06-0.927,14.54-3.519a26.519,26.519,0,1,0-39.75-22.971c0,5.14,1.83,9.869,4.16,14.255,1.96,3.69,2.95,10.537-3.77,14.421a10.64,10.64,0,0,1-14.36-3.933c-2.63-4.217-5.81-8.168-10.26-10.74a26.518,26.518,0,1,0,0,45.942c4.45-2.57,7.63-6.519,10.26-10.734,2.16-3.461,7.55-7.872,14.36-3.938a10.664,10.664,0,0,1,3.76,14.423c-2.33,4.386-4.15,9.114-4.15,14.253A26.5,26.5,0,1,0,1473.74,423.5Z" transform="translate(-1370 -346)"/>
</svg>
