<svg xmlns="http://www.w3.org/2000/svg" width="21" height="17" viewBox="0 0 21 17">
  <metadata><?xpacket begin="﻿" id="W5M0MpCehiHzreSzNTczkc9d"?>
<x:xmpmeta xmlns:x="adobe:ns:meta/" x:xmptk="Adobe XMP Core 5.6-c142 79.160924, 2017/07/13-01:06:39        ">
   <rdf:RDF xmlns:rdf="http://www.w3.org/1999/02/22-rdf-syntax-ns#">
      <rdf:Description rdf:about=""/>
   </rdf:RDF>
</x:xmpmeta>
                                                                                                    
                                                                                                    
                                                                                                    
                                                                                                    
                                                                                                    
                                                                                                    
                                                                                                    
                                                                                                    
                                                                                                    
                                                                                                    
                                                                                                    
                                                                                                    
                                                                                                    
                                                                                                    
                                                                                                    
                                                                                                    
                                                                                                    
                                                                                                    
                                                                                                    
                                                                                                    
                           
<?xpacket end="w"?></metadata>
<defs>
    <style>
      .cls-1 {
        fill: #fff;
        fill-rule: evenodd;
      }
    </style>
  </defs>
  <path class="cls-1" d="M1287.99,616.968a9.6,9.6,0,0,1-2.5.7,4.181,4.181,0,0,0,1.88-2.367,9.487,9.487,0,0,1-2.75,1.052,4.373,4.373,0,0,0-3.15-1.358,4.3,4.3,0,0,0-4.29,4.3,3.723,3.723,0,0,0,.13.964,12.271,12.271,0,0,1-8.88-4.514,4.489,4.489,0,0,0-.57,2.147,4.3,4.3,0,0,0,1.93,3.594,5.049,5.049,0,0,1-1.97-.526V621a4.331,4.331,0,0,0,3.46,4.251,4.839,4.839,0,0,1-1.14.131,5.436,5.436,0,0,1-.83-0.087,4.28,4.28,0,0,0,4.02,2.98,8.735,8.735,0,0,1-5.33,1.84,7.629,7.629,0,0,1-1.01-.043,12.252,12.252,0,0,0,18.85-10.343v-0.57A7.929,7.929,0,0,0,1287.99,616.968Z" transform="translate(-1267 -615)"/>
</svg>
