<svg xmlns="http://www.w3.org/2000/svg"><symbol id="icon_alert" viewBox="0 0 24 24"><circle cx="12" cy="12" r="11" stroke-linecap="square" stroke-miterlimit="10" stroke-width="2"/><path stroke-linecap="square" stroke-miterlimit="10" stroke-width="2" d="M12 7v6"/><circle cx="12" cy="17" r="1"/></symbol><symbol id="icon_angle" viewBox="0 0 10 5.5"><path stroke-linecap="round" stroke-linejoin="round" d="M.5.5L5 5 9.5.5"/></symbol><symbol id="icon_arrow-right" viewBox="0 0 21.41 16.83"><path stroke-miterlimit="10" stroke-width="2" d="M0 8.41h20"/><path stroke-linecap="square" stroke-miterlimit="10" stroke-width="2" d="M13 1.41l7 7-7 7"/></symbol><symbol id="icon_arrow" viewBox="0 0 11 16"><path stroke-linecap="round" stroke-linejoin="round" d="M5.5 15.5V.5m-5 5l5-5 5 5"/></symbol><symbol id="icon_bell" viewBox="0 0 23.02 25.97"><path d="M23 18.45a4.36 4.36 0 0 0-1.32-2.82 4.73 4.73 0 0 1-1.45-3.41L20.1 12V9c0-4.75-3.88-9-8.53-9C6.91 0 3.12 4.21 3.1 9v3a5.33 5.33 0 0 1-1.76 3.57A4.28 4.28 0 0 0 0 18.37c0 2.47 3.37 3.88 7.49 4.4a4.11 4.11 0 0 0 4 3.2 4.1 4.1 0 0 0 2.94-1.23 4.35 4.35 0 0 0 1.07-1.94c4.14-.47 7.5-1.87 7.5-4.35zM13 23.3a2.14 2.14 0 0 1-1.55.64 2.15 2.15 0 0 1-1.81-1h3.63a1.64 1.64 0 0 1-.22.36zm2.32-2.48a1 1 0 0 0-.68-.3 1 1 0 0 0-.77.42h-2.8c-.72 0-1.37 0-2-.07a1 1 0 0 0-.77-.42 1 1 0 0 0-.69.29C3.49 20.27 2 18.91 2 18.38s.31-.84.85-1.48A7.3 7.3 0 0 0 5.1 12V9c0-3.64 2.92-7 6.44-7a6.88 6.88 0 0 1 6.56 7v3a7.44 7.44 0 0 0 2.11 5c.54.65.84 1 .84 1.49s-1.5 1.85-5.68 2.33z" fill-rule="evenodd"/></symbol><symbol id="icon_big-angle" viewBox="0 0 12.83 22.83"><path stroke-linecap="square" stroke-miterlimit="10" stroke-width="2" d="M11.41 1.41l-10 10 10 10"/></symbol><symbol id="icon_calendar" viewBox="0 0 24 24"><path stroke-linecap="square" stroke-miterlimit="10" stroke-width="2" d="M23 9v14H1V9m0-6h22v6H1zm11-2v4M6 1v4m12-4v4"/></symbol><symbol id="icon_dashboard" viewBox="0 0 27.01 26.01"><path d="M26 0H13a1 1 0 0 0-1 1v10a1 1 0 0 0 1 1h13a1 1 0 0 0 1-1V1a1 1 0 0 0-1-1zm-1 10H14V2h11zM1 12h8a1 1 0 0 0 1-1V1a1 1 0 0 0-1-1H1a1 1 0 0 0-1 1v10a1 1 0 0 0 1 1zM2 2h6v8H2zm12 12H1a1 1 0 0 0-1 1v10a1 1 0 0 0 1 1h13a1 1 0 0 0 1-1V15a1 1 0 0 0-1-1zm-1 10H2v-8h11zm13-10h-8a1 1 0 0 0-1 1v10a1 1 0 0 0 1 1h7.92A1 1 0 0 0 27 25v-9.8a1.12 1.12 0 0 0-1-1.2zm-1 10h-6v-8h6z" fill-rule="evenodd"/></symbol><symbol id="icon_envelope" viewBox="0 0 24 24"><path d="M12.5 17.9a.9.9 0 0 1-.5.1.9.9 0 0 1-.5-.1L0 11.7V23a.94.94 0 0 0 1 1h22a.94.94 0 0 0 1-1V11.7z"/><path d="M6 12.6V2h12v10.6l5.1-2.8L20 7.5V1a.94.94 0 0 0-1-1H5a.94.94 0 0 0-1 1v6.6L.9 9.9z"/><path d="M8 5h8v2H8zm0 4h8v2H8z"/></symbol><symbol id="icon_eye" viewBox="0 0 22.3 16"><path d="M1.15 8s4-7 10-7 10 7 10 7-4 7-10 7-10-7-10-7z" stroke-linecap="square" stroke-miterlimit="10" stroke-width="2"/><circle cx="11.15" cy="8" r="3" stroke-linecap="square" stroke-miterlimit="10" stroke-width="2"/></symbol><symbol id="icon_money" viewBox="0 0 24.99 27"><path d="M16.94 11a8 8 0 1 0 8 8 8 8 0 0 0-8-8zm0 14.25A6.24 6.24 0 1 1 23.21 19 6.25 6.25 0 0 1 17 25.22zm-9.58-7.57a.88.88 0 0 0 .89-.87.83.83 0 0 0-.25-.63.88.88 0 0 0-.62-.27C3.53 15.82 2.1 15.21 2 15v-2a15.47 15.47 0 0 0 5.91.82h1A.89.89 0 1 0 8.87 12h-1c-4 0-5.8-.77-5.91-1.05V9a15.19 15.19 0 0 0 5.95 1A16.3 16.3 0 0 0 14 9v1a1.09 1.09 0 0 0 1 1 1.09 1.09 0 0 0 1-1V3c0-2.11-4.16-3-8.09-3S0 .94 0 3v16c0 2 3.65 2.5 7.11 2.62a.89.89 0 0 0 .89-.87.87.87 0 0 0-.25-.64.89.89 0 0 0-.62-.27C3.49 19.72 2.1 19.2 2 19v-2a15 15 0 0 0 5.36.68zM14 7c-.11.31-2.14 1.17-6.09 1.17S2.11 7.28 2 7V5a15 15 0 0 0 5.91 1.07A16 16 0 0 0 14 5zM1.78 3.08c.16-.26 1.57-1 4.67-1.24v-.21l.05.21h1.37c.5 0 1 0 1.43.05C12.6 2 14 2.86 14.05 3c-.12.32-2.2 1.3-6.14 1.3H5.83c-.41 0-.78-.09-1.15-.15a6.24 6.24 0 0 1-2.9-1.07z" fill-rule="evenodd"/></symbol><symbol id="icon_pen" viewBox="0 0 22.69 22.69"><path stroke-miterlimit="10" stroke-width="2" d="M18.27 8.41l-4-4"/><path stroke-linecap="square" stroke-miterlimit="10" stroke-width="2" d="M6.28 20.41l-5.01 1 1-5 15-15 4 4-14.99 15z"/></symbol><symbol id="icon_refresh" viewBox="0 0 612.035 612.035"><path d="M323.128 56.236l5.646-9.57 40.17-40.169C271.247-13.921 165.482 13.786 89.65 89.646-16.421 195.717-28.355 360.261 53.875 479.49L10.98 522.386l137.7 19.667-19.667-137.7-34.968 34.967c-60.978-96.724-49.322-226.078 34.94-310.34 53.244-53.243 124.486-77.501 194.143-72.744zm258.264 13.743l-137.7-19.667 19.668 137.7 38.25-38.25c78.726 98.31 72.521 242.186-18.583 333.317-61.116 61.117-145.989 84.039-224.882 68.739l-45.65 45.649c105.654 33.799 226.05 8.791 309.895-75.054 112.858-112.858 119.146-291.979 18.805-412.209l40.197-40.225z"/></symbol><symbol id="icon_star" viewBox="0 0 39 37"><path fill-rule="evenodd" d="M19.5 2.501l5.603 10.056 11.395 2.166-7.933 8.382 1.44 11.394L19.5 29.623 8.995 34.499l1.439-11.394-7.932-8.382 11.395-2.166L19.5 2.501"/></symbol><symbol id="icon_time" viewBox="0 0 26 26"><path d="M13 0a13 13 0 1 0 13 13A13 13 0 0 0 13 0zm0 24a11 11 0 1 1 11-11 11 11 0 0 1-11 11zm7.29-12H14V5.32a1 1 0 1 0-2 0V13a1 1 0 0 0 1 1h7.29a1 1 0 1 0 0-2z" fill-rule="evenodd"/></symbol><symbol id="icon_upload" viewBox="0 0 30 30.41"><path stroke-miterlimit="10" stroke-width="2" d="M15 23.41v-22"/><path stroke-linecap="square" stroke-miterlimit="10" stroke-width="2" d="M23 9.41l-8-8-8 8m-6 15v5h28v-5"/></symbol></svg>