<svg xmlns="http://www.w3.org/2000/svg" width="140" height="140" viewBox="0 0 140 140"><defs><style>.cls-1{fill:#83a1c4;fill-rule:evenodd}</style></defs><path class="cls-1" d="M0 0h6.667v6.667H0V0zm0 6.667h6.667v6.666H0V6.667zm0 6.666h6.667V20H0v-6.667zM0 20h6.667v6.667H0V20zm0 6.667h6.667v6.666H0v-6.666zm0 6.666h6.667V40H0v-6.667zM0 40h6.667v6.667H0V40zm0 13.333h6.667V60H0v-6.667zM0 60h6.667v6.667H0V60zm0 13.333h6.667V80H0v-6.667zm0 20h6.667V100H0v-6.667zM0 100h6.667v6.667H0V100zm0 6.667h6.667v6.666H0v-6.666zm0 6.666h6.667V120H0v-6.667zM0 120h6.667v6.667H0V120zm0 6.667h6.667v6.666H0v-6.666zm0 6.666h6.667V140H0v-6.667zM6.667 0h6.666v6.667H6.667V0zm0 40h6.666v6.667H6.667V40zm0 13.333h6.666V60H6.667v-6.667zm0 13.334h6.666v6.666H6.667v-6.666zm0 6.666h6.666V80H6.667v-6.667zm0 6.667h6.666v6.667H6.667V80zm0 13.333h6.666V100H6.667v-6.667zm0 40h6.666V140H6.667v-6.667zM13.333 0H20v6.667h-6.667V0zm0 13.333H20V20h-6.667v-6.667zm0 6.667H20v6.667h-6.667V20zm0 6.667H20v6.666h-6.667v-6.666zm0 13.333H20v6.667h-6.667V40zm0 13.333H20V60h-6.667v-6.667zm0 13.334H20v6.666h-6.667v-6.666zm0 6.666H20V80h-6.667v-6.667zm0 6.667H20v6.667h-6.667V80zm0 13.333H20V100h-6.667v-6.667zm0 13.334H20v6.666h-6.667v-6.666zm0 6.666H20V120h-6.667v-6.667zm0 6.667H20v6.667h-6.667V120zm0 13.333H20V140h-6.667v-6.667zM20 0h6.667v6.667H20V0zm0 13.333h6.667V20H20v-6.667zM20 20h6.667v6.667H20V20zm0 6.667h6.667v6.666H20v-6.666zM20 40h6.667v6.667H20V40zm0 33.333h6.667V80H20v-6.667zM20 80h6.667v6.667H20V80zm0 13.333h6.667V100H20v-6.667zm0 13.334h6.667v6.666H20v-6.666zm0 6.666h6.667V120H20v-6.667zM20 120h6.667v6.667H20V120zm0 13.333h6.667V140H20v-6.667zM26.667 0h6.666v6.667h-6.666V0zm0 13.333h6.666V20h-6.666v-6.667zm0 6.667h6.666v6.667h-6.666V20zm0 6.667h6.666v6.666h-6.666v-6.666zm0 13.333h6.666v6.667h-6.666V40zm0 13.333h6.666V60h-6.666v-6.667zm0 13.334h6.666v6.666h-6.666v-6.666zm0 26.666h6.666V100h-6.666v-6.667zm0 13.334h6.666v6.666h-6.666v-6.666zm0 6.666h6.666V120h-6.666v-6.667zm0 6.667h6.666v6.667h-6.666V120zm0 13.333h6.666V140h-6.666v-6.667zM33.333 0H40v6.667h-6.667V0zm0 40H40v6.667h-6.667V40zm0 13.333H40V60h-6.667v-6.667zm0 20H40V80h-6.667v-6.667zm0 20H40V100h-6.667v-6.667zm0 40H40V140h-6.667v-6.667zM40 0h6.667v6.667H40V0zm0 6.667h6.667v6.666H40V6.667zm0 6.666h6.667V20H40v-6.667zM40 20h6.667v6.667H40V20zm0 6.667h6.667v6.666H40v-6.666zm0 6.666h6.667V40H40v-6.667zM40 40h6.667v6.667H40V40zm0 13.333h6.667V60H40v-6.667zm0 13.334h6.667v6.666H40v-6.666zM40 80h6.667v6.667H40V80zm0 13.333h6.667V100H40v-6.667zM40 100h6.667v6.667H40V100zm0 6.667h6.667v6.666H40v-6.666zm0 6.666h6.667V120H40v-6.667zM40 120h6.667v6.667H40V120zm0 6.667h6.667v6.666H40v-6.666zm0 6.666h6.667V140H40v-6.667zm6.667-80h6.666V60h-6.666v-6.667zm0 13.334h6.666v6.666h-6.666v-6.666zm0 6.666h6.666V80h-6.666v-6.667zm0 6.667h6.666v6.667h-6.666V80zm6.666-66.667H60V20h-6.667v-6.667zm0 26.667H60v6.667h-6.667V40zm0 6.667H60v6.666h-6.667v-6.666zm0 6.666H60V60h-6.667v-6.667zm0 6.667H60v6.667h-6.667V60zm0 6.667H60v6.666h-6.667v-6.666zm0 6.666H60V80h-6.667v-6.667zm0 6.667H60v6.667h-6.667V80zm0 6.667H60v6.666h-6.667v-6.666zm0 6.666H60V100h-6.667v-6.667zm0 6.667H60v6.667h-6.667V100zm0 6.667H60v6.666h-6.667v-6.666zm0 13.333H60v6.667h-6.667V120zm0 6.667H60v6.666h-6.667v-6.666zm0 6.666H60V140h-6.667v-6.667zM60 0h6.667v6.667H60V0zm0 6.667h6.667v6.666H60V6.667zm0 6.666h6.667V20H60v-6.667zM60 20h6.667v6.667H60V20zm0 26.667h6.667v6.666H60v-6.666zm0 6.666h6.667V60H60v-6.667zM60 60h6.667v6.667H60V60zm0 26.667h6.667v6.666H60v-6.666zm0 6.666h6.667V100H60v-6.667zM60 100h6.667v6.667H60V100zm0 6.667h6.667v6.666H60v-6.666zm0 26.666h6.667V140H60v-6.667zM66.667 6.667h6.666v6.666h-6.666V6.667zm0 20h6.666v6.666h-6.666v-6.666zm0 13.333h6.666v6.667h-6.666V40zm0 13.333h6.666V60h-6.666v-6.667zm0 26.667h6.666v6.667h-6.666V80zm0 6.667h6.666v6.666h-6.666v-6.666zm0 13.333h6.666v6.667h-6.666V100zm0 13.333h6.666V120h-6.666v-6.667zM73.333 0H80v6.667h-6.667V0zm0 6.667H80v6.666h-6.667V6.667zm0 6.666H80V20h-6.667v-6.667zm0 6.667H80v6.667h-6.667V20zm0 26.667H80v6.666h-6.667v-6.666zm0 6.666H80V60h-6.667v-6.667zm0 33.334H80v6.666h-6.667v-6.666zm0 6.666H80V100h-6.667v-6.667zm0 6.667H80v6.667h-6.667V100zm0 6.667H80v6.666h-6.667v-6.666zM80 0h6.667v6.667H80V0zm0 13.333h6.667V20H80v-6.667zm0 13.334h6.667v6.666H80v-6.666zm0 6.666h6.667V40H80v-6.667zM80 40h6.667v6.667H80V40zm0 6.667h6.667v6.666H80v-6.666zm0 20h6.667v6.666H80v-6.666zM80 80h6.667v6.667H80V80zm0 20h6.667v6.667H80V100zm0 20h6.667v6.667H80V120zm0 13.333h6.667V140H80v-6.667zm6.667-80h6.666V60h-6.666v-6.667zm0 33.334h6.666v6.666h-6.666v-6.666zm0 6.666h6.666V100h-6.666v-6.667zm0 6.667h6.666v6.667h-6.666V100zm0 6.667h6.666v6.666h-6.666v-6.666zM93.333 0H100v6.667h-6.667V0zm0 6.667H100v6.666h-6.667V6.667zm0 6.666H100V20h-6.667v-6.667zm0 6.667H100v6.667h-6.667V20zm0 6.667H100v6.666h-6.667v-6.666zm0 6.666H100V40h-6.667v-6.667zm0 6.667H100v6.667h-6.667V40zm0 13.333H100V60h-6.667v-6.667zm0 6.667H100v6.667h-6.667V60zm0 13.333H100V80h-6.667v-6.667zm0 6.667H100v6.667h-6.667V80zm0 13.333H100V100h-6.667v-6.667zm0 13.334H100v6.666h-6.667v-6.666zm0 6.666H100V120h-6.667v-6.667zm0 13.334H100v6.666h-6.667v-6.666zm0 6.666H100V140h-6.667v-6.667zM100 0h6.667v6.667H100V0zm0 40h6.667v6.667H100V40zm0 46.667h6.667v6.666H100v-6.666zm0 6.666h6.667V100H100v-6.667zm0 6.667h6.667v6.667H100V100zm0 6.667h6.667v6.666H100v-6.666zM106.667 0h6.666v6.667h-6.666V0zm0 13.333h6.666V20h-6.666v-6.667zm0 6.667h6.666v6.667h-6.666V20zm0 6.667h6.666v6.666h-6.666v-6.666zm0 13.333h6.666v6.667h-6.666V40zm0 26.667h6.666v6.666h-6.666v-6.666zm0 13.333h6.666v6.667h-6.666V80zm0 20h6.666v6.667h-6.666V100zm0 20h6.666v6.667h-6.666V120zm0 13.333h6.666V140h-6.666v-6.667zM113.333 0H120v6.667h-6.667V0zm0 13.333H120V20h-6.667v-6.667zm0 6.667H120v6.667h-6.667V20zm0 6.667H120v6.666h-6.667v-6.666zm0 13.333H120v6.667h-6.667V40zm0 20H120v6.667h-6.667V60zm0 6.667H120v6.666h-6.667v-6.666zm0 6.666H120V80h-6.667v-6.667zm0 6.667H120v6.667h-6.667V80zm0 6.667H120v6.666h-6.667v-6.666zm0 13.333H120v6.667h-6.667V100zM120 0h6.67v6.667H120V0zm0 13.333h6.67V20H120v-6.667zM120 20h6.67v6.667H120V20zm0 6.667h6.67v6.666H120v-6.666zM120 40h6.67v6.667H120V40zm0 13.333h6.67V60H120v-6.667zm0 13.334h6.67v6.666H120v-6.666zm0 40h6.67v6.666H120v-6.666zm0 6.666h6.67V120H120v-6.667zm0 13.334h6.67v6.666H120v-6.666zm0 6.666h6.67V140H120v-6.667zM126.67 0h6.66v6.667h-6.66V0zm0 40h6.66v6.667h-6.66V40zm0 33.333h6.66V80h-6.66v-6.667zm0 6.667h6.66v6.667h-6.66V80zm0 6.667h6.66v6.666h-6.66v-6.666zm0 6.666h6.66V100h-6.66v-6.667zm0 20h6.66V120h-6.66v-6.667zm0 13.334h6.66v6.666h-6.66v-6.666zm0 6.666h6.66V140h-6.66v-6.667zM133.33 0H140v6.667h-6.67V0zm0 6.667H140v6.666h-6.67V6.667zm0 6.666H140V20h-6.67v-6.667zm0 6.667H140v6.667h-6.67V20zm0 6.667H140v6.666h-6.67v-6.666zm0 6.666H140V40h-6.67v-6.667zm0 6.667H140v6.667h-6.67V40zm0 20H140v6.667h-6.67V60zm0 6.667H140v6.666h-6.67v-6.666zm0 13.333H140v6.667h-6.67V80zm0 6.667H140v6.666h-6.67v-6.666zm0 6.666H140V100h-6.67v-6.667zm0 6.667H140v6.667h-6.67V100zm0 6.667H140v6.666h-6.67v-6.666zm0 13.333H140v6.667h-6.67V120zm0 13.333H140V140h-6.67v-6.667z"/></svg>