<svg xmlns="http://www.w3.org/2000/svg" viewBox="0 0 48 36"><title>usa</title><path d="M48 2a2 2 0 0 0-2-2H20v20H0v14a2 2 0 0 0 2 2h44a2 2 0 0 0 2-2z" fill="#b41f30"/><path fill="#e6e6e6" d="M20 4h28v4H20zm0 8h28v4H20zM0 20v4h48v-4H0zm0 8h48v4H0z"/><path d="M20 20H0V2a2 2 0 0 1 2-2h18z" fill="#00256a"/><path fill="#fff" d="M10 7.92l-.63 1.37H7.86l1.1 1.14-.4 1.65 1.44-.82 1.44.82-.4-1.65 1.1-1.14h-1.51L10 7.92zM5.11 3.03L4.47 4.4h-1.5l1.1 1.14-.41 1.64 1.45-.81 1.44.81-.41-1.64 1.1-1.14h-1.5l-.63-1.37zm9.78 0l.64 1.37h1.5l-1.1 1.14.41 1.64-1.45-.81-1.44.81.41-1.64-1.1-1.14h1.5l.63-1.37zM5.11 16.97l-.64-1.37h-1.5l1.1-1.14-.41-1.65 1.45.82 1.44-.82-.41 1.65 1.1 1.14h-1.5l-.63 1.37zm9.78 0l.64-1.37h1.5l-1.1-1.14.41-1.65-1.45.82-1.44-.82.41 1.65-1.1 1.14h1.5l.63 1.37z"/></svg>