<svg xmlns="http://www.w3.org/2000/svg" width="140" height="140" viewBox="0 0 140 140">
  <defs>
    <style>
      .cls-1 {
        fill: #83a1c4;
        fill-rule: evenodd;
      }
    </style>
  </defs>
  <path class="cls-1" d="M886,779h6.667v6.667H886V779Zm0,6.667h6.667v6.666H886v-6.666Zm0,6.666h6.667V799H886v-6.667ZM886,799h6.667v6.667H886V799Zm0,6.667h6.667v6.666H886v-6.666Zm0,6.666h6.667V819H886v-6.667ZM886,819h6.667v6.667H886V819Zm0,13.333h6.667V839H886v-6.667ZM886,839h6.667v6.667H886V839Zm0,13.333h6.667V859H886v-6.667Zm0,20h6.667V879H886v-6.667ZM886,879h6.667v6.667H886V879Zm0,6.667h6.667v6.666H886v-6.666Zm0,6.666h6.667V899H886v-6.667ZM886,899h6.667v6.667H886V899Zm0,6.667h6.667v6.666H886v-6.666Zm0,6.666h6.667V919H886v-6.667ZM892.667,779h6.666v6.667h-6.666V779Zm0,40h6.666v6.667h-6.666V819Zm0,13.333h6.666V839h-6.666v-6.667Zm0,13.334h6.666v6.666h-6.666v-6.666Zm0,6.666h6.666V859h-6.666v-6.667Zm0,6.667h6.666v6.667h-6.666V859Zm0,13.333h6.666V879h-6.666v-6.667Zm0,40h6.666V919h-6.666v-6.667ZM899.333,779H906v6.667h-6.667V779Zm0,13.333H906V799h-6.667v-6.667Zm0,6.667H906v6.667h-6.667V799Zm0,6.667H906v6.666h-6.667v-6.666Zm0,13.333H906v6.667h-6.667V819Zm0,13.333H906V839h-6.667v-6.667Zm0,13.334H906v6.666h-6.667v-6.666Zm0,6.666H906V859h-6.667v-6.667Zm0,6.667H906v6.667h-6.667V859Zm0,13.333H906V879h-6.667v-6.667Zm0,13.334H906v6.666h-6.667v-6.666Zm0,6.666H906V899h-6.667v-6.667Zm0,6.667H906v6.667h-6.667V899Zm0,13.333H906V919h-6.667v-6.667ZM906,779h6.667v6.667H906V779Zm0,13.333h6.667V799H906v-6.667ZM906,799h6.667v6.667H906V799Zm0,6.667h6.667v6.666H906v-6.666ZM906,819h6.667v6.667H906V819Zm0,33.333h6.667V859H906v-6.667ZM906,859h6.667v6.667H906V859Zm0,13.333h6.667V879H906v-6.667Zm0,13.334h6.667v6.666H906v-6.666Zm0,6.666h6.667V899H906v-6.667ZM906,899h6.667v6.667H906V899Zm0,13.333h6.667V919H906v-6.667ZM912.667,779h6.666v6.667h-6.666V779Zm0,13.333h6.666V799h-6.666v-6.667Zm0,6.667h6.666v6.667h-6.666V799Zm0,6.667h6.666v6.666h-6.666v-6.666Zm0,13.333h6.666v6.667h-6.666V819Zm0,13.333h6.666V839h-6.666v-6.667Zm0,13.334h6.666v6.666h-6.666v-6.666Zm0,26.666h6.666V879h-6.666v-6.667Zm0,13.334h6.666v6.666h-6.666v-6.666Zm0,6.666h6.666V899h-6.666v-6.667Zm0,6.667h6.666v6.667h-6.666V899Zm0,13.333h6.666V919h-6.666v-6.667ZM919.333,779H926v6.667h-6.667V779Zm0,40H926v6.667h-6.667V819Zm0,13.333H926V839h-6.667v-6.667Zm0,20H926V859h-6.667v-6.667Zm0,20H926V879h-6.667v-6.667Zm0,40H926V919h-6.667v-6.667ZM926,779h6.667v6.667H926V779Zm0,6.667h6.667v6.666H926v-6.666Zm0,6.666h6.667V799H926v-6.667ZM926,799h6.667v6.667H926V799Zm0,6.667h6.667v6.666H926v-6.666Zm0,6.666h6.667V819H926v-6.667ZM926,819h6.667v6.667H926V819Zm0,13.333h6.667V839H926v-6.667Zm0,13.334h6.667v6.666H926v-6.666ZM926,859h6.667v6.667H926V859Zm0,13.333h6.667V879H926v-6.667ZM926,879h6.667v6.667H926V879Zm0,6.667h6.667v6.666H926v-6.666Zm0,6.666h6.667V899H926v-6.667ZM926,899h6.667v6.667H926V899Zm0,6.667h6.667v6.666H926v-6.666Zm0,6.666h6.667V919H926v-6.667Zm6.667-80h6.666V839h-6.666v-6.667Zm0,13.334h6.666v6.666h-6.666v-6.666Zm0,6.666h6.666V859h-6.666v-6.667Zm0,6.667h6.666v6.667h-6.666V859Zm6.666-66.667H946V799h-6.667v-6.667Zm0,26.667H946v6.667h-6.667V819Zm0,6.667H946v6.666h-6.667v-6.666Zm0,6.666H946V839h-6.667v-6.667Zm0,6.667H946v6.667h-6.667V839Zm0,6.667H946v6.666h-6.667v-6.666Zm0,6.666H946V859h-6.667v-6.667Zm0,6.667H946v6.667h-6.667V859Zm0,6.667H946v6.666h-6.667v-6.666Zm0,6.666H946V879h-6.667v-6.667Zm0,6.667H946v6.667h-6.667V879Zm0,6.667H946v6.666h-6.667v-6.666Zm0,13.333H946v6.667h-6.667V899Zm0,6.667H946v6.666h-6.667v-6.666Zm0,6.666H946V919h-6.667v-6.667ZM946,779h6.667v6.667H946V779Zm0,6.667h6.667v6.666H946v-6.666Zm0,6.666h6.667V799H946v-6.667ZM946,799h6.667v6.667H946V799Zm0,26.667h6.667v6.666H946v-6.666Zm0,6.666h6.667V839H946v-6.667ZM946,839h6.667v6.667H946V839Zm0,26.667h6.667v6.666H946v-6.666Zm0,6.666h6.667V879H946v-6.667ZM946,879h6.667v6.667H946V879Zm0,6.667h6.667v6.666H946v-6.666Zm0,26.666h6.667V919H946v-6.667Zm6.667-126.666h6.666v6.666h-6.666v-6.666Zm0,20h6.666v6.666h-6.666v-6.666Zm0,13.333h6.666v6.667h-6.666V819Zm0,13.333h6.666V839h-6.666v-6.667Zm0,26.667h6.666v6.667h-6.666V859Zm0,6.667h6.666v6.666h-6.666v-6.666Zm0,13.333h6.666v6.667h-6.666V879Zm0,13.333h6.666V899h-6.666v-6.667ZM959.333,779H966v6.667h-6.667V779Zm0,6.667H966v6.666h-6.667v-6.666Zm0,6.666H966V799h-6.667v-6.667Zm0,6.667H966v6.667h-6.667V799Zm0,26.667H966v6.666h-6.667v-6.666Zm0,6.666H966V839h-6.667v-6.667Zm0,33.334H966v6.666h-6.667v-6.666Zm0,6.666H966V879h-6.667v-6.667Zm0,6.667H966v6.667h-6.667V879Zm0,6.667H966v6.666h-6.667v-6.666ZM966,779h6.667v6.667H966V779Zm0,13.333h6.667V799H966v-6.667Zm0,13.334h6.667v6.666H966v-6.666Zm0,6.666h6.667V819H966v-6.667ZM966,819h6.667v6.667H966V819Zm0,6.667h6.667v6.666H966v-6.666Zm0,20h6.667v6.666H966v-6.666ZM966,859h6.667v6.667H966V859Zm0,20h6.667v6.667H966V879Zm0,20h6.667v6.667H966V899Zm0,13.333h6.667V919H966v-6.667Zm6.667-80h6.666V839h-6.666v-6.667Zm0,33.334h6.666v6.666h-6.666v-6.666Zm0,6.666h6.666V879h-6.666v-6.667Zm0,6.667h6.666v6.667h-6.666V879Zm0,6.667h6.666v6.666h-6.666v-6.666ZM979.333,779H986v6.667h-6.667V779Zm0,6.667H986v6.666h-6.667v-6.666Zm0,6.666H986V799h-6.667v-6.667Zm0,6.667H986v6.667h-6.667V799Zm0,6.667H986v6.666h-6.667v-6.666Zm0,6.666H986V819h-6.667v-6.667Zm0,6.667H986v6.667h-6.667V819Zm0,13.333H986V839h-6.667v-6.667Zm0,6.667H986v6.667h-6.667V839Zm0,13.333H986V859h-6.667v-6.667Zm0,6.667H986v6.667h-6.667V859Zm0,13.333H986V879h-6.667v-6.667Zm0,13.334H986v6.666h-6.667v-6.666Zm0,6.666H986V899h-6.667v-6.667Zm0,13.334H986v6.666h-6.667v-6.666Zm0,6.666H986V919h-6.667v-6.667ZM986,779h6.667v6.667H986V779Zm0,40h6.667v6.667H986V819Zm0,46.667h6.667v6.666H986v-6.666Zm0,6.666h6.667V879H986v-6.667ZM986,879h6.667v6.667H986V879Zm0,6.667h6.667v6.666H986v-6.666ZM992.667,779h6.666v6.667h-6.666V779Zm0,13.333h6.666V799h-6.666v-6.667Zm0,6.667h6.666v6.667h-6.666V799Zm0,6.667h6.666v6.666h-6.666v-6.666Zm0,13.333h6.666v6.667h-6.666V819Zm0,26.667h6.666v6.666h-6.666v-6.666Zm0,13.333h6.666v6.667h-6.666V859Zm0,20h6.666v6.667h-6.666V879Zm0,20h6.666v6.667h-6.666V899Zm0,13.333h6.666V919h-6.666v-6.667ZM999.333,779H1006v6.667h-6.667V779Zm0,13.333H1006V799h-6.667v-6.667Zm0,6.667H1006v6.667h-6.667V799Zm0,6.667H1006v6.666h-6.667v-6.666Zm0,13.333H1006v6.667h-6.667V819Zm0,20H1006v6.667h-6.667V839Zm0,6.667H1006v6.666h-6.667v-6.666Zm0,6.666H1006V859h-6.667v-6.667Zm0,6.667H1006v6.667h-6.667V859Zm0,6.667H1006v6.666h-6.667v-6.666Zm0,13.333H1006v6.667h-6.667V879ZM1006,779h6.67v6.667H1006V779Zm0,13.333h6.67V799H1006v-6.667Zm0,6.667h6.67v6.667H1006V799Zm0,6.667h6.67v6.666H1006v-6.666ZM1006,819h6.67v6.667H1006V819Zm0,13.333h6.67V839H1006v-6.667Zm0,13.334h6.67v6.666H1006v-6.666Zm0,40h6.67v6.666H1006v-6.666Zm0,6.666h6.67V899H1006v-6.667Zm0,13.334h6.67v6.666H1006v-6.666Zm0,6.666h6.67V919H1006v-6.667ZM1012.67,779h6.66v6.667h-6.66V779Zm0,40h6.66v6.667h-6.66V819Zm0,33.333h6.66V859h-6.66v-6.667Zm0,6.667h6.66v6.667h-6.66V859Zm0,6.667h6.66v6.666h-6.66v-6.666Zm0,6.666h6.66V879h-6.66v-6.667Zm0,20h6.66V899h-6.66v-6.667Zm0,13.334h6.66v6.666h-6.66v-6.666Zm0,6.666h6.66V919h-6.66v-6.667ZM1019.33,779H1026v6.667h-6.67V779Zm0,6.667H1026v6.666h-6.67v-6.666Zm0,6.666H1026V799h-6.67v-6.667Zm0,6.667H1026v6.667h-6.67V799Zm0,6.667H1026v6.666h-6.67v-6.666Zm0,6.666H1026V819h-6.67v-6.667Zm0,6.667H1026v6.667h-6.67V819Zm0,20H1026v6.667h-6.67V839Zm0,6.667H1026v6.666h-6.67v-6.666Zm0,13.333H1026v6.667h-6.67V859Zm0,6.667H1026v6.666h-6.67v-6.666Zm0,6.666H1026V879h-6.67v-6.667Zm0,6.667H1026v6.667h-6.67V879Zm0,6.667H1026v6.666h-6.67v-6.666Zm0,13.333H1026v6.667h-6.67V899Zm0,13.333H1026V919h-6.67v-6.667Z" transform="translate(-886 -779)"/>
</svg>
