<svg xmlns="http://www.w3.org/2000/svg" viewBox="0 0 48 36"><title>usa</title><path d="M48,2a2,2,0,0,0-2-2H20V20H0V34a2,2,0,0,0,2,2H46a2,2,0,0,0,2-2Z" fill="#b41f30"/><rect x="20" y="4" width="28" height="4" fill="#e6e6e6"/><rect x="20" y="12" width="28" height="4" fill="#e6e6e6"/><polygon points="0 20 0 24 48 24 48 20 20 20 0 20" fill="#e6e6e6"/><rect y="28" width="48" height="4" fill="#e6e6e6"/><path d="M20,20H0V2A2,2,0,0,1,2,0H20Z" fill="#00256a"/><polygon points="10 7.92 9.37 9.29 7.86 9.29 8.96 10.43 8.56 12.08 10 11.26 11.44 12.08 11.04 10.43 12.14 9.29 10.63 9.29 10 7.92" fill="#fff"/><polygon points="5.11 3.03 4.47 4.4 2.97 4.4 4.07 5.54 3.66 7.18 5.11 6.37 6.55 7.18 6.14 5.54 7.24 4.4 5.74 4.4 5.11 3.03" fill="#fff"/><polygon points="14.89 3.03 15.53 4.4 17.03 4.4 15.93 5.54 16.34 7.18 14.89 6.37 13.45 7.18 13.86 5.54 12.76 4.4 14.26 4.4 14.89 3.03" fill="#fff"/><polygon points="5.11 16.97 4.47 15.6 2.97 15.6 4.07 14.46 3.66 12.81 5.11 13.63 6.55 12.81 6.14 14.46 7.24 15.6 5.74 15.6 5.11 16.97" fill="#fff"/><polygon points="14.89 16.97 15.53 15.6 17.03 15.6 15.93 14.46 16.34 12.81 14.89 13.63 13.45 12.81 13.86 14.46 12.76 15.6 14.26 15.6 14.89 16.97" fill="#fff"/></svg>